<svg width="1200" height="630" viewBox="0 0 1200 630" fill="none" xmlns="http://www.w3.org/2000/svg" role="img" aria-labelledby="title desc">
  <title id="title">电子印章生成器项目插图</title>
  <desc id="desc">浅色工作台中展示一个红色电子印章预览和参数设置面板。</desc>
  <rect width="1200" height="630" fill="#eef1f5"/>
  <path d="M0 0h1200v630H0z" fill="url(#grid)"/>
  <rect x="72" y="64" width="1056" height="502" rx="18" fill="#fff" stroke="#d7dde6"/>
  <rect x="72" y="64" width="1056" height="64" rx="18" fill="#f8f9fb"/>
  <path d="M72 128h1056" stroke="#d7dde6"/>
  <rect x="102" y="88" width="32" height="32" rx="6" fill="#b52323"/>
  <text x="118" y="111" text-anchor="middle" font-family="PingFang SC, Microsoft YaHei, sans-serif" font-size="18" font-weight="800" fill="#fff">印</text>
  <text x="152" y="108" font-family="PingFang SC, Microsoft YaHei, sans-serif" font-size="22" font-weight="800" fill="#1f2328">电子印章生成器</text>
  <text x="930" y="108" font-family="PingFang SC, Microsoft YaHei, sans-serif" font-size="14" font-weight="700" fill="#b52323">透明 PNG 导出</text>

  <rect x="104" y="160" width="590" height="374" rx="12" fill="#f9fafc" stroke="#b9c1cf"/>
  <path d="M104 160h590v374H104z" fill="url(#checker)" opacity=".9"/>
  <circle cx="399" cy="346" r="170" stroke="#b52323" stroke-width="12"/>
  <circle cx="399" cy="346" r="143" stroke="#b52323" stroke-width="4" opacity=".75"/>
  <path d="m399 246 25 69h73l-59 43 23 70-62-43-61 43 23-70-59-43h73l24-69Z" fill="#b52323"/>
  <path id="topArc" d="M238 326a164 164 0 0 1 322 0" />
  <text font-family="PingFang SC, Microsoft YaHei, sans-serif" font-size="28" font-weight="800" fill="#b52323">
    <textPath href="#topArc" startOffset="50%" text-anchor="middle">示例科技有限公司</textPath>
  </text>
  <text x="399" y="438" text-anchor="middle" font-family="PingFang SC, Microsoft YaHei, sans-serif" font-size="30" font-weight="800" fill="#b52323">电子印章</text>
  <text x="399" y="474" text-anchor="middle" font-family="PingFang SC, Microsoft YaHei, sans-serif" font-size="18" font-weight="700" fill="#b52323">NO.20260529</text>

  <rect x="734" y="160" width="330" height="374" rx="12" fill="#f7f8fa" stroke="#d7dde6"/>
  <text x="764" y="198" font-family="PingFang SC, Microsoft YaHei, sans-serif" font-size="18" font-weight="800" fill="#1f2328">印章设置</text>
  <rect x="764" y="222" width="270" height="38" rx="6" fill="#fff" stroke="#d7dde6"/>
  <text x="782" y="247" font-family="PingFang SC, Microsoft YaHei, sans-serif" font-size="14" font-weight="700" fill="#4b5563">主体文字</text>
  <text x="858" y="247" font-family="PingFang SC, Microsoft YaHei, sans-serif" font-size="14" fill="#1f2328">示例科技有限公司</text>
  <rect x="764" y="278" width="270" height="38" rx="6" fill="#fff" stroke="#d7dde6"/>
  <text x="782" y="303" font-family="PingFang SC, Microsoft YaHei, sans-serif" font-size="14" font-weight="700" fill="#4b5563">字体样式</text>
  <text x="858" y="303" font-family="PingFang SC, Microsoft YaHei, sans-serif" font-size="14" fill="#1f2328">微软雅黑</text>
  <rect x="764" y="344" width="270" height="76" rx="8" fill="#fff" stroke="#d7dde6"/>
  <text x="782" y="372" font-family="PingFang SC, Microsoft YaHei, sans-serif" font-size="14" font-weight="800" fill="#1f2328">边框线型</text>
  <rect x="782" y="388" width="104" height="22" rx="11" fill="#fff0ee" stroke="#b52323"/>
  <text x="834" y="404" text-anchor="middle" font-family="PingFang SC, Microsoft YaHei, sans-serif" font-size="12" font-weight="800" fill="#b52323">双线条</text>
  <path d="M764 464h270" stroke="#d7dde6"/>
  <text x="764" y="492" font-family="PingFang SC, Microsoft YaHei, sans-serif" font-size="14" font-weight="800" fill="#1f2328">做旧纹理</text>
  <rect x="858" y="478" width="176" height="12" rx="6" fill="#e6eaf0"/>
  <rect x="858" y="478" width="112" height="12" rx="6" fill="#b52323"/>

  <defs>
    <pattern id="grid" width="36" height="36" patternUnits="userSpaceOnUse">
      <path d="M36 0H0v36" stroke="#d7dde6" stroke-opacity=".45"/>
    </pattern>
    <pattern id="checker" width="32" height="32" patternUnits="userSpaceOnUse">
      <rect width="16" height="16" fill="#e1e6ee"/>
      <rect x="16" y="16" width="16" height="16" fill="#e1e6ee"/>
      <rect x="16" width="16" height="16" fill="#f8fafc"/>
      <rect y="16" width="16" height="16" fill="#f8fafc"/>
    </pattern>
  </defs>
</svg>
